<svg width="127" height="84" viewBox="0 0 127 84" fill="none" xmlns="http://www.w3.org/2000/svg">
<path d="M9.46191 36.8182H1.6068V47H3.13805V38.1307H7.93066V47H9.46191V36.8182ZM14.9829 47.1541C16.6483 47.1541 17.8266 46.3338 18.1647 45.0909L16.7577 44.8374C16.4893 45.5582 15.843 45.9261 14.9978 45.9261C13.7251 45.9261 12.8699 45.1009 12.8302 43.6293H18.2591V43.1023C18.2591 40.343 16.6086 39.2642 14.8785 39.2642C12.7506 39.2642 11.3486 40.8849 11.3486 43.2315C11.3486 45.603 12.7307 47.1541 14.9829 47.1541ZM12.8351 42.5156C12.8948 41.4318 13.6803 40.4922 14.8884 40.4922C16.0418 40.4922 16.7975 41.3473 16.8025 42.5156H12.8351ZM19.9085 49.8636H21.395V45.8118H21.4845C21.7529 46.299 22.2998 47.1491 23.6919 47.1491C25.5413 47.1491 26.8836 45.6676 26.8836 43.1967C26.8836 40.7209 25.5214 39.2642 23.6769 39.2642C22.26 39.2642 21.748 40.1293 21.4845 40.6016H21.3602V39.3636H19.9085V49.8636ZM21.3651 43.1818C21.3651 41.5859 22.0612 40.527 23.3588 40.527C24.7061 40.527 25.3822 41.6655 25.3822 43.1818C25.3822 44.7131 24.6862 45.8814 23.3588 45.8814C22.0811 45.8814 21.3651 44.7876 21.3651 43.1818ZM31.8403 47.1541C33.5058 47.1541 34.684 46.3338 35.0221 45.0909L33.6151 44.8374C33.3467 45.5582 32.7004 45.9261 31.8552 45.9261C30.5825 45.9261 29.7274 45.1009 29.6876 43.6293H35.1166V43.1023C35.1166 40.343 33.466 39.2642 31.7359 39.2642C29.608 39.2642 28.2061 40.8849 28.2061 43.2315C28.2061 45.603 29.5882 47.1541 31.8403 47.1541ZM29.6926 42.5156C29.7522 41.4318 30.5377 40.4922 31.7458 40.4922C32.8992 40.4922 33.6549 41.3473 33.6599 42.5156H29.6926ZM36.0922 40.6463H38.593V47H40.0447V40.6463H42.5354V39.3636H36.0922V40.6463ZM45.9745 47.169C47.2373 47.169 47.9482 46.5277 48.2316 45.956H48.2913V47H49.743V41.929C49.743 39.7067 47.993 39.2642 46.7799 39.2642C45.3978 39.2642 44.1251 39.821 43.6279 41.2131L45.0249 41.5312C45.2437 40.9893 45.8005 40.4673 46.7998 40.4673C47.7593 40.4673 48.2515 40.9695 48.2515 41.8345V41.8693C48.2515 42.4112 47.6947 42.4013 46.3225 42.5604C44.8758 42.7294 43.3943 43.1072 43.3943 44.8423C43.3943 46.3438 44.5228 47.169 45.9745 47.169ZM46.2977 45.9759C45.4575 45.9759 44.8509 45.598 44.8509 44.8622C44.8509 44.0668 45.5569 43.7834 46.417 43.669C46.8992 43.6044 48.0427 43.4751 48.2565 43.2614V44.2457C48.2565 45.1506 47.5356 45.9759 46.2977 45.9759ZM62.6654 45.7173H61.3728V39.3636H59.9161V45.7124H57.2762V39.3636H55.8195V45.7124H53.1796V39.3636H51.7229V47H61.0695V49.1875H62.5262L62.6654 45.7173ZM65.6894 44.9169V39.3636H64.2327V47H65.8485L69.1993 41.4418V47H70.656V39.3636H69.0551L65.6894 44.9169ZM71.7075 40.6463H74.2082V47H75.6599V40.6463H78.1507V39.3636H71.7075V40.6463ZM82.6586 47.1541C84.3241 47.1541 85.5024 46.3338 85.8405 45.0909L84.4335 44.8374C84.165 45.5582 83.5187 45.9261 82.6736 45.9261C81.4008 45.9261 80.5457 45.1009 80.5059 43.6293H85.9349V43.1023C85.9349 40.343 84.2844 39.2642 82.5542 39.2642C80.4264 39.2642 79.0244 40.8849 79.0244 43.2315C79.0244 45.603 80.4065 47.1541 82.6586 47.1541ZM80.5109 42.5156C80.5706 41.4318 81.3561 40.4922 82.5642 40.4922C83.7176 40.4922 84.4733 41.3473 84.4782 42.5156H80.5109ZM94.5059 47.1541C96.3106 47.1541 97.479 46.0703 97.643 44.5838H96.1963C96.0074 45.4091 95.366 45.8963 94.5159 45.8963C93.2581 45.8963 92.4477 44.8473 92.4477 43.1818C92.4477 41.5462 93.273 40.517 94.5159 40.517C95.4605 40.517 96.0372 41.1136 96.1963 41.8295H97.643C97.4839 40.2884 96.2261 39.2642 94.491 39.2642C92.3383 39.2642 90.9463 40.8849 90.9463 43.2166C90.9463 45.5185 92.2886 47.1541 94.5059 47.1541ZM100.212 39.3636H98.7256V47H100.212V43.8878H101.912C102.156 45.8615 103.483 47.1541 105.402 47.1541C107.54 47.1541 108.937 45.5582 108.937 43.2116C108.937 40.8452 107.54 39.2642 105.402 39.2642C103.459 39.2642 102.131 40.5767 101.907 42.5952H100.212V39.3636ZM105.402 45.8814C103.966 45.8814 103.324 44.6683 103.324 43.2116C103.324 41.75 103.966 40.527 105.402 40.527C106.844 40.527 107.481 41.755 107.481 43.2116C107.481 44.6634 106.844 45.8814 105.402 45.8814ZM109.944 49.2024H111.416V47H116.74V49.2024H118.192V45.7124H117.019V39.3636H111.828L111.59 42.2124C111.43 44.1364 111.197 45.1406 110.565 45.7124H109.944V49.2024ZM112.156 45.7124C112.663 45.0014 112.852 43.8182 113.002 42.2124L113.161 40.6364H115.567V45.7124H112.156ZM121.867 47.169C123.13 47.169 123.841 46.5277 124.124 45.956H124.184V47H125.636V41.929C125.636 39.7067 123.886 39.2642 122.672 39.2642C121.29 39.2642 120.018 39.821 119.521 41.2131L120.918 41.5312C121.136 40.9893 121.693 40.4673 122.692 40.4673C123.652 40.4673 124.144 40.9695 124.144 41.8345V41.8693C124.144 42.4112 123.587 42.4013 122.215 42.5604C120.768 42.7294 119.287 43.1072 119.287 44.8423C119.287 46.3438 120.415 47.169 121.867 47.169ZM122.19 45.9759C121.35 45.9759 120.744 45.598 120.744 44.8622C120.744 44.0668 121.449 43.7834 122.31 43.669C122.792 43.6044 123.935 43.4751 124.149 43.2614V44.2457C124.149 45.1506 123.428 45.9759 122.19 45.9759Z" fill="#5D5FEF"/>
<path d="M17.8311 66H18.1721C19.6209 66 20.0385 64.875 20.1323 62.7273L20.2346 60.392H22.638V66H23.6436V59.4545H19.28L19.1607 62.3523C19.0755 64.5511 18.8539 65.0625 18.0698 65.0625H17.8311V66ZM26.0172 59.4545H25.0115V66H26.0172V63.2557H27.6962C27.8752 65.0071 29.013 66.1364 30.6365 66.1364C32.4093 66.1364 33.6025 64.7898 33.6025 62.7614C33.6025 60.7159 32.4093 59.3693 30.6365 59.3693C28.9959 59.3693 27.8496 60.5241 27.6919 62.3182H26.0172V59.4545ZM30.6365 65.233C29.29 65.233 28.6763 64.0739 28.6763 62.7614C28.6763 61.4489 29.29 60.2727 30.6365 60.2727C31.9831 60.2727 32.5968 61.4489 32.5968 62.7614C32.5968 64.0739 31.9831 65.233 30.6365 65.233ZM40.0968 57C39.7772 57.2685 39.2999 57.2685 38.6309 57.2642C38.4135 57.2642 38.1749 57.2642 37.915 57.2727C35.9206 57.3239 34.932 58.8409 34.932 61.7557V62.4545C34.932 64.875 36.1081 66.1364 37.8638 66.1364C39.6152 66.1364 40.7786 64.8665 40.7786 62.8125C40.7786 60.75 39.5982 59.6591 38.0684 59.6591C37.1692 59.6591 36.3297 60.0341 35.8865 60.8523H35.8013C35.9377 59.1648 36.5684 58.2614 37.932 58.2102C39.1422 58.1591 40.0115 58.1932 40.6081 57.6136L40.0968 57ZM37.8638 65.233C36.6706 65.233 35.9377 64.2784 35.9377 62.8125C35.959 61.3807 36.6792 60.5625 37.8468 60.5625C39.0442 60.5625 39.7729 61.3807 39.7729 62.8125C39.7729 64.2869 39.0485 65.233 37.8638 65.233ZM44.976 66.1364C46.7488 66.1364 47.9419 64.7898 47.9419 62.7614C47.9419 60.7159 46.7488 59.3693 44.976 59.3693C43.2033 59.3693 42.0101 60.7159 42.0101 62.7614C42.0101 64.7898 43.2033 66.1364 44.976 66.1364ZM44.976 65.233C43.6294 65.233 43.0158 64.0739 43.0158 62.7614C43.0158 61.4489 43.6294 60.2727 44.976 60.2727C46.3226 60.2727 46.9363 61.4489 46.9363 62.7614C46.9363 64.0739 46.3226 65.233 44.976 65.233ZM50.4828 64.517V59.4545H49.4771V66H50.6532L53.7896 60.9375V66H54.7953V59.4545H53.6362L50.4828 64.517ZM52.9714 57.2727C52.9714 57.7159 52.7328 58.108 52.1362 58.108C51.5396 58.108 51.318 57.7159 51.318 57.2727H50.3805C50.3805 58.1932 51.0623 58.8409 52.1362 58.8409C53.2271 58.8409 53.9089 58.1932 53.9089 57.2727H52.9714ZM62.177 60.3068C63.1998 60.3153 63.8091 61.2528 63.9412 62.233H61.5123V63.1705H63.9498C63.8432 64.1676 63.2125 65.1733 62.177 65.1818C61.41 65.1733 60.6941 64.5085 60.6941 63.767H59.7054C59.7054 65.071 60.7452 66.1193 62.177 66.1193C63.9668 66.1193 64.9725 64.598 64.9725 62.8636V62.625C64.9725 60.8906 63.9668 59.3693 62.177 59.3693C60.8986 59.3693 59.7054 60.4176 59.7054 61.5511H60.6941C60.6941 60.8736 61.4952 60.3153 62.177 60.3068ZM65.9249 66H66.2658C67.7147 66 68.1323 64.875 68.226 62.7273L68.3283 60.392H70.7317V66H71.7374V59.4545H67.3738L67.2544 62.3523C67.1692 64.5511 66.9476 65.0625 66.1635 65.0625H65.9249V66ZM76.3269 66.1364C77.6564 66.1364 78.628 65.4716 78.9348 64.483L77.9632 64.2102C77.7076 64.892 77.1152 65.233 76.3269 65.233C75.1465 65.233 74.3326 64.4702 74.2857 63.0682H79.0371V62.642C79.0371 60.2045 77.5882 59.3693 76.2246 59.3693C74.4519 59.3693 73.2757 60.767 73.2757 62.7784C73.2757 64.7898 74.4348 66.1364 76.3269 66.1364ZM74.2857 62.1989C74.3539 61.1804 75.074 60.2727 76.2246 60.2727C77.3155 60.2727 78.0144 61.0909 78.0144 62.1989H74.2857ZM84.1465 64.6364L81.8965 59.4545H80.5669V66H81.5726V60.8991L83.7374 66H84.5556L86.7203 60.9929V66H87.726V59.4545H86.4306L84.1465 64.6364ZM92.3113 66.1364C93.6408 66.1364 94.6124 65.4716 94.9192 64.483L93.9476 64.2102C93.6919 64.892 93.0996 65.233 92.3113 65.233C91.1309 65.233 90.3169 64.4702 90.2701 63.0682H95.0215V62.642C95.0215 60.2045 93.5726 59.3693 92.209 59.3693C90.4363 59.3693 89.2601 60.767 89.2601 62.7784C89.2601 64.7898 90.4192 66.1364 92.3113 66.1364ZM90.2701 62.1989C90.3382 61.1804 91.0584 60.2727 92.209 60.2727C93.2999 60.2727 93.9988 61.0909 93.9988 62.1989H90.2701ZM97.557 59.4545H96.5513V66H97.557V63.2045H100.693V66H101.699V59.4545H100.693V62.267H97.557V59.4545ZM102.645 60.392H104.81V66H105.816V60.392H107.963V59.4545H102.645V60.392ZM16.4691 79.517V74.4545H15.4634V81H16.6396L19.7759 75.9375V81H20.7816V74.4545H19.6225L16.4691 79.517ZM22.2145 79.3295C22.2486 80.4034 23.2756 81.1364 24.669 81.1364C26.1009 81.1364 27.1406 80.3693 27.1406 79.1761C27.1406 78.358 26.6506 77.6932 25.9134 77.642V77.5739C26.5355 77.3821 27.0043 76.9304 27.0043 76.1932C27.0043 75.1577 26.1179 74.3693 24.7372 74.3693C23.3736 74.3693 22.402 75.1193 22.3679 76.1761H23.4247C23.4545 75.6349 24.0213 75.2557 24.7884 75.2557C25.5511 75.2557 25.9815 75.6435 25.9815 76.2273C25.9815 76.7727 25.6065 77.1818 24.8054 77.1818H23.6804V78.0852H24.8054C25.6065 78.0852 26.1179 78.5241 26.1179 79.1761C26.1179 79.9219 25.4574 80.233 24.652 80.233C23.8636 80.233 23.3352 79.9219 23.2884 79.3295H22.2145ZM31.3487 81H31.6896C33.1385 81 33.5561 79.875 33.6499 77.7273L33.7521 75.392H36.1555V81H37.1612V74.4545H32.7976L32.6783 77.3523C32.593 79.5511 32.3714 80.0625 31.5874 80.0625H31.3487V81ZM41.7507 81.1364C43.0803 81.1364 44.0518 80.4716 44.3587 79.483L43.3871 79.2102C43.1314 79.892 42.5391 80.233 41.7507 80.233C40.5703 80.233 39.7564 79.4702 39.7095 78.0682H44.4609V77.642C44.4609 75.2045 43.0121 74.3693 41.6484 74.3693C39.8757 74.3693 38.6996 75.767 38.6996 77.7784C38.6996 79.7898 39.8587 81.1364 41.7507 81.1364ZM39.7095 77.1989C39.7777 76.1804 40.4979 75.2727 41.6484 75.2727C42.7393 75.2727 43.4382 76.0909 43.4382 77.1989H39.7095ZM45.9908 81H49.076C50.4055 81 51.2067 80.25 51.2067 79.2443C51.2067 78.2173 50.4268 77.6634 49.7067 77.5568C50.4439 77.4034 50.968 76.9901 50.968 76.1932C50.968 75.1491 50.0732 74.4545 48.6669 74.4545H45.9908V81ZM46.9453 80.0795V78.0682H49.076C49.7663 78.0682 50.1839 78.4815 50.1839 79.1591C50.1839 79.7301 49.7663 80.0795 49.076 80.0795H46.9453ZM46.9453 77.1989V75.375H48.6669C49.4723 75.375 49.9624 75.7116 49.9624 76.2614C49.9624 76.8452 49.4723 77.1989 48.6669 77.1989H46.9453ZM55.3881 81.1364C57.1609 81.1364 58.354 79.7898 58.354 77.7614C58.354 75.7159 57.1609 74.3693 55.3881 74.3693C53.6154 74.3693 52.4222 75.7159 52.4222 77.7614C52.4222 79.7898 53.6154 81.1364 55.3881 81.1364ZM55.3881 80.233C54.0415 80.233 53.4279 79.0739 53.4279 77.7614C53.4279 76.4489 54.0415 75.2727 55.3881 75.2727C56.7347 75.2727 57.3484 76.4489 57.3484 77.7614C57.3484 79.0739 56.7347 80.233 55.3881 80.233ZM60.8949 79.517V74.4545H59.8892V81H61.0653L64.2017 75.9375V81H65.2074V74.4545H64.0483L60.8949 79.517ZM63.3835 72.2727C63.3835 72.7159 63.1449 73.108 62.5483 73.108C61.9517 73.108 61.7301 72.7159 61.7301 72.2727H60.7926C60.7926 73.1932 61.4744 73.8409 62.5483 73.8409C63.6392 73.8409 64.321 73.1932 64.321 72.2727H63.3835ZM70.4244 81H71.43V75.392H74.5664V81H75.5721V74.4545H70.4244V81ZM79.3349 81.1534C80.4769 81.1534 81.0735 80.5398 81.2781 80.1136H81.3292V81H82.3349V76.6875C82.3349 74.608 80.7496 74.3693 79.9144 74.3693C78.9258 74.3693 77.8008 74.7102 77.2894 75.9034L78.244 76.2443C78.4656 75.767 78.9897 75.2557 79.9485 75.2557C80.8732 75.2557 81.3292 75.7457 81.3292 76.5852V76.6193C81.3292 77.1051 80.8349 77.0625 79.6417 77.2159C78.4272 77.3736 77.1019 77.642 77.1019 79.142C77.1019 80.4205 78.0906 81.1534 79.3349 81.1534ZM79.4883 80.25C78.6871 80.25 78.1076 79.892 78.1076 79.1932C78.1076 78.4261 78.8065 78.1875 79.5906 78.0852C80.0167 78.0341 81.1587 77.9148 81.3292 77.7102V78.6307C81.3292 79.4489 80.6815 80.25 79.4883 80.25ZM85.1761 74.4545H84.1705V81H85.1761V78.2045H88.3125V81H89.3182V74.4545H88.3125V77.267H85.1761V74.4545ZM93.8991 81.1364C95.2287 81.1364 96.2003 80.4716 96.5071 79.483L95.5355 79.2102C95.2798 79.892 94.6875 80.233 93.8991 80.233C92.7188 80.233 91.9048 79.4702 91.858 78.0682H96.6094V77.642C96.6094 75.2045 95.1605 74.3693 93.7969 74.3693C92.0241 74.3693 90.848 75.767 90.848 77.7784C90.848 79.7898 92.0071 81.1364 93.8991 81.1364ZM91.858 77.1989C91.9261 76.1804 92.6463 75.2727 93.7969 75.2727C94.8878 75.2727 95.5866 76.0909 95.5866 77.1989H91.858ZM97.5597 81H97.9006C99.3494 81 99.767 79.875 99.8608 77.7273L99.9631 75.392H102.366V81H103.372V74.4545H99.0085L98.8892 77.3523C98.804 79.5511 98.5824 80.0625 97.7983 80.0625H97.5597V81ZM106.223 79.517V74.4545H105.217V81H106.393L109.53 75.9375V81H110.536V74.4545H109.376L106.223 79.517Z" fill="#6B7280"/>
<path d="M70.7778 1V5.44444" stroke="black" stroke-width="2" stroke-linecap="round"/>
<path d="M73 3.22222L68.5556 3.22222" stroke="black" stroke-width="2" stroke-linecap="round"/>
<path d="M64.3889 4.22222C64.9412 4.22222 65.3889 3.77451 65.3889 3.22222C65.3889 2.66994 64.9412 2.22222 64.3889 2.22222V4.22222ZM71.7778 9.61111C71.7778 9.05883 71.3301 8.61111 70.7778 8.61111C70.2255 8.61111 69.7778 9.05883 69.7778 9.61111H71.7778ZM66.1818 17.5404C66.5723 17.931 67.2055 17.931 67.596 17.5404C67.9865 17.1499 67.9865 16.5168 67.596 16.1262L66.1818 17.5404ZM66.7778 20H57V22H66.7778V20ZM57 4.22222H64.3889V2.22222H57V4.22222ZM69.7778 9.61111V17H71.7778V9.61111H69.7778ZM54 17V16.2778H52V17H54ZM54 16.2778V7.22223H52V16.2778H54ZM53.7071 16.9849L57.5453 13.1466L56.1311 11.7324L52.2929 15.5707L53.7071 16.9849ZM61.788 13.1466C61.7907 13.1494 61.7934 13.1521 61.7962 13.1548C61.7989 13.1576 61.8017 13.1603 61.8044 13.1631C61.8071 13.1658 61.8099 13.1685 61.8126 13.1713C61.8154 13.174 61.8181 13.1768 61.8209 13.1795C61.8236 13.1823 61.8263 13.185 61.8291 13.1877C61.8318 13.1905 61.8346 13.1932 61.8373 13.196C61.8401 13.1987 61.8428 13.2015 61.8456 13.2042C61.8483 13.207 61.8511 13.2097 61.8538 13.2125C61.8566 13.2152 61.8593 13.218 61.8621 13.2208C61.8649 13.2235 61.8676 13.2263 61.8704 13.229C61.8731 13.2318 61.8759 13.2345 61.8786 13.2373C61.8814 13.2401 61.8842 13.2428 61.8869 13.2456C61.8897 13.2483 61.8924 13.2511 61.8952 13.2539C61.898 13.2566 61.9007 13.2594 61.9035 13.2621C61.9063 13.2649 61.909 13.2677 61.9118 13.2704C61.9146 13.2732 61.9173 13.276 61.9201 13.2787C61.9229 13.2815 61.9256 13.2843 61.9284 13.2871C61.9312 13.2898 61.9339 13.2926 61.9367 13.2954C61.9395 13.2981 61.9423 13.3009 61.945 13.3037C61.9478 13.3065 61.9506 13.3092 61.9533 13.312C61.9561 13.3148 61.9589 13.3176 61.9617 13.3203C61.9645 13.3231 61.9672 13.3259 61.97 13.3287C61.9728 13.3315 61.9756 13.3342 61.9784 13.337C61.9811 13.3398 61.9839 13.3426 61.9867 13.3454C61.9895 13.3481 61.9923 13.3509 61.9951 13.3537C61.9978 13.3565 62.0006 13.3593 62.0034 13.3621C62.0062 13.3649 62.009 13.3676 62.0118 13.3704C62.0146 13.3732 62.0174 13.376 62.0201 13.3788C62.0229 13.3816 62.0257 13.3844 62.0285 13.3872C62.0313 13.39 62.0341 13.3928 62.0369 13.3956C62.0397 13.3983 62.0425 13.4011 62.0453 13.4039C62.0481 13.4067 62.0509 13.4095 62.0537 13.4123C62.0565 13.4151 62.0593 13.4179 62.0621 13.4207C62.0649 13.4235 62.0677 13.4263 62.0705 13.4291C62.0733 13.4319 62.0761 13.4347 62.0789 13.4375C62.0817 13.4403 62.0845 13.4431 62.0873 13.4459C62.0901 13.4487 62.0929 13.4515 62.0957 13.4544C62.0985 13.4572 62.1013 13.46 62.1041 13.4628C62.1069 13.4656 62.1097 13.4684 62.1125 13.4712C62.1154 13.474 62.1182 13.4768 62.121 13.4796C62.1238 13.4824 62.1266 13.4853 62.1294 13.4881C62.1322 13.4909 62.135 13.4937 62.1379 13.4965C62.1407 13.4993 62.1435 13.5021 62.1463 13.505C62.1491 13.5078 62.1519 13.5106 62.1547 13.5134C62.1576 13.5162 62.1604 13.519 62.1632 13.5219C62.166 13.5247 62.1688 13.5275 62.1717 13.5303C62.1745 13.5331 62.1773 13.536 62.1801 13.5388C62.183 13.5416 62.1858 13.5444 62.1886 13.5473C62.1914 13.5501 62.1943 13.5529 62.1971 13.5557C62.1999 13.5586 62.2027 13.5614 62.2056 13.5642C62.2084 13.567 62.2112 13.5699 62.214 13.5727C62.2169 13.5755 62.2197 13.5784 62.2225 13.5812C62.2254 13.584 62.2282 13.5869 62.231 13.5897C62.2339 13.5925 62.2367 13.5954 62.2395 13.5982C62.2424 13.601 62.2452 13.6039 62.248 13.6067C62.2509 13.6095 62.2537 13.6124 62.2565 13.6152C62.2594 13.618 62.2622 13.6209 62.2651 13.6237C62.2679 13.6266 62.2707 13.6294 62.2736 13.6322C62.2764 13.6351 62.2793 13.6379 62.2821 13.6408C62.2849 13.6436 62.2878 13.6464 62.2906 13.6493C62.2935 13.6521 62.2963 13.655 62.2992 13.6578C62.302 13.6607 62.3048 13.6635 62.3077 13.6663C62.3105 13.6692 62.3134 13.672 62.3162 13.6749C62.3191 13.6777 62.3219 13.6806 62.3248 13.6834C62.3276 13.6863 62.3305 13.6891 62.3333 13.692C62.3362 13.6948 62.339 13.6977 62.3419 13.7005C62.3447 13.7034 62.3476 13.7062 62.3504 13.7091C62.3533 13.7119 62.3561 13.7148 62.359 13.7177C62.3619 13.7205 62.3647 13.7234 62.3676 13.7262C62.3704 13.7291 62.3733 13.7319 62.3761 13.7348C62.379 13.7377 62.3819 13.7405 62.3847 13.7434C62.3876 13.7462 62.3904 13.7491 62.3933 13.7519C62.3962 13.7548 62.399 13.7577 62.4019 13.7605C62.4047 13.7634 62.4076 13.7663 62.4105 13.7691C62.4133 13.772 62.4162 13.7748 62.4191 13.7777C62.4219 13.7806 62.4248 13.7834 62.4277 13.7863C62.4305 13.7892 62.4334 13.792 62.4362 13.7949C62.4391 13.7978 62.442 13.8006 62.4449 13.8035C62.4477 13.8064 62.4506 13.8092 62.4535 13.8121C62.4563 13.815 62.4592 13.8179 62.4621 13.8207C62.4649 13.8236 62.4678 13.8265 62.4707 13.8293C62.4736 13.8322 62.4764 13.8351 62.4793 13.838C62.4822 13.8408 62.4851 13.8437 62.4879 13.8466C62.4908 13.8495 62.4937 13.8523 62.4966 13.8552C62.4994 13.8581 62.5023 13.861 62.5052 13.8638C62.5081 13.8667 62.5109 13.8696 62.5138 13.8725C62.5167 13.8754 62.5196 13.8782 62.5225 13.8811C62.5253 13.884 62.5282 13.8869 62.5311 13.8898C62.534 13.8926 62.5369 13.8955 62.5398 13.8984C62.5426 13.9013 62.5455 13.9042 62.5484 13.9071C62.5513 13.9099 62.5542 13.9128 62.5571 13.9157C62.5599 13.9186 62.5628 13.9215 62.5657 13.9244C62.5686 13.9273 62.5715 13.9301 62.5744 13.933C62.5773 13.9359 62.5802 13.9388 62.583 13.9417C62.5859 13.9446 62.5888 13.9475 62.5917 13.9504C62.5946 13.9533 62.5975 13.9562 62.6004 13.959C62.6033 13.9619 62.6062 13.9648 62.6091 13.9677C62.612 13.9706 62.6148 13.9735 62.6177 13.9764C62.6206 13.9793 62.6235 13.9822 62.6264 13.9851C62.6293 13.988 62.6322 13.9909 62.6351 13.9938C62.638 13.9967 62.6409 13.9996 62.6438 14.0025C62.6467 14.0054 62.6496 14.0082 62.6525 14.0111C62.6554 14.014 62.6583 14.0169 62.6612 14.0198C62.6641 14.0227 62.667 14.0256 62.6699 14.0285C62.6728 14.0314 62.6757 14.0343 62.6786 14.0372C62.6815 14.0401 62.6844 14.043 62.6873 14.0459C62.6902 14.0489 62.6931 14.0518 62.696 14.0547C62.6989 14.0576 62.7018 14.0605 62.7047 14.0634C62.7076 14.0663 62.7105 14.0692 62.7134 14.0721C62.7163 14.075 62.7192 14.0779 62.7221 14.0808C62.7251 14.0837 62.728 14.0866 62.7309 14.0895C62.7338 14.0924 62.7367 14.0953 62.7396 14.0983C62.7425 14.1012 62.7454 14.1041 62.7483 14.107C62.7512 14.1099 62.7541 14.1128 62.7571 14.1157C62.76 14.1186 62.7629 14.1215 62.7658 14.1244C62.7687 14.1274 62.7716 14.1303 62.7745 14.1332C62.7774 14.1361 62.7803 14.139 62.7833 14.1419C62.7862 14.1448 62.7891 14.1477 62.792 14.1507C62.7949 14.1536 62.7978 14.1565 62.8008 14.1594C62.8037 14.1623 62.8066 14.1652 62.8095 14.1682C62.8124 14.1711 62.8153 14.174 62.8183 14.1769C62.8212 14.1798 62.8241 14.1827 62.827 14.1857C62.8299 14.1886 62.8328 14.1915 62.8358 14.1944C62.8387 14.1973 62.8416 14.2003 62.8445 14.2032C62.8474 14.2061 62.8504 14.209 62.8533 14.2119C62.8562 14.2149 62.8591 14.2178 62.8621 14.2207C62.865 14.2236 62.8679 14.2266 62.8708 14.2295C62.8737 14.2324 62.8767 14.2353 62.8796 14.2382C62.8825 14.2412 62.8854 14.2441 62.8884 14.247C62.8913 14.2499 62.8942 14.2529 62.8971 14.2558C62.9001 14.2587 62.903 14.2616 62.9059 14.2646C62.9088 14.2675 62.9118 14.2704 62.9147 14.2734C62.9176 14.2763 62.9206 14.2792 62.9235 14.2821C62.9264 14.2851 62.9293 14.288 62.9323 14.2909C62.9352 14.2939 62.9381 14.2968 62.9411 14.2997C62.944 14.3026 62.9469 14.3056 62.9498 14.3085C62.9528 14.3114 62.9557 14.3144 62.9586 14.3173C62.9616 14.3202 62.9645 14.3232 62.9674 14.3261C62.9704 14.329 62.9733 14.332 62.9762 14.3349C62.9792 14.3378 62.9821 14.3408 62.985 14.3437C62.988 14.3466 62.9909 14.3496 62.9938 14.3525C62.9968 14.3554 62.9997 14.3584 63.0026 14.3613C63.0056 14.3642 63.0085 14.3672 63.0115 14.3701C63.0144 14.373 63.0173 14.376 63.0203 14.3789C63.0232 14.3819 63.0261 14.3848 63.0291 14.3877C63.032 14.3907 63.0349 14.3936 63.0379 14.3965C63.0408 14.3995 63.0438 14.4024 63.0467 14.4054C63.0496 14.4083 63.0526 14.4112 63.0555 14.4142C63.0585 14.4171 63.0614 14.4201 63.0643 14.423C63.0673 14.4259 63.0702 14.4289 63.0732 14.4318C63.0761 14.4348 63.079 14.4377 63.082 14.4406C63.0849 14.4436 63.0879 14.4465 63.0908 14.4495C63.0938 14.4524 63.0967 14.4554 63.0996 14.4583C63.1026 14.4612 63.1055 14.4642 63.1085 14.4671C63.1114 14.4701 63.1144 14.473 63.1173 14.476C63.1202 14.4789 63.1232 14.4818 63.1261 14.4848C63.1291 14.4877 63.132 14.4907 63.135 14.4936C63.1379 14.4966 63.1409 14.4995 63.1438 14.5025C63.1468 14.5054 63.1497 14.5084 63.1526 14.5113C63.1556 14.5143 63.1585 14.5172 63.1615 14.5201C63.1644 14.5231 63.1674 14.526 63.1703 14.529C63.1733 14.5319 63.1762 14.5349 63.1792 14.5378C63.1821 14.5408 63.1851 14.5437 63.188 14.5467C63.191 14.5496 63.1939 14.5526 63.1969 14.5555C63.1998 14.5585 63.2028 14.5614 63.2057 14.5644C63.2087 14.5673 63.2116 14.5703 63.2146 14.5732C63.2175 14.5762 63.2205 14.5791 63.2234 14.5821C63.2264 14.585 63.2293 14.588 63.2323 14.5909C63.2352 14.5939 63.2382 14.5968 63.2411 14.5998C63.2441 14.6027 63.247 14.6057 63.25 14.6087C63.2529 14.6116 63.2559 14.6146 63.2589 14.6175C63.2618 14.6205 63.2648 14.6234 63.2677 14.6264C63.2707 14.6293 63.2736 14.6323 63.2766 14.6352C63.2795 14.6382 63.2825 14.6411 63.2854 14.6441C63.2884 14.647 63.2913 14.65 63.2943 14.653C63.2973 14.6559 63.3002 14.6589 63.3032 14.6618C63.3061 14.6648 63.3091 14.6677 63.312 14.6707C63.315 14.6736 63.3179 14.6766 63.3209 14.6796C63.3239 14.6825 63.3268 14.6855 63.3298 14.6884C63.3327 14.6914 63.3357 14.6943 63.3386 14.6973C63.3416 14.7003 63.3446 14.7032 63.3475 14.7062C63.3505 14.7091 63.3534 14.7121 63.3564 14.715C63.3593 14.718 63.3623 14.721 63.3653 14.7239C63.3682 14.7269 63.3712 14.7298 63.3741 14.7328C63.3771 14.7358 63.3801 14.7387 63.383 14.7417C63.386 14.7446 63.3889 14.7476 63.3919 14.7506C63.3949 14.7535 63.3978 14.7565 63.4008 14.7594C63.4037 14.7624 63.4067 14.7653 63.4097 14.7683C63.4126 14.7713 63.4156 14.7742 63.4185 14.7772C63.4215 14.7802 63.4245 14.7831 63.4274 14.7861C63.4304 14.789 63.4333 14.792 63.4363 14.795C63.4393 14.7979 63.4422 14.8009 63.4452 14.8038C63.4481 14.8068 63.4511 14.8098 63.4541 14.8127C63.457 14.8157 63.46 14.8186 63.463 14.8216C63.4659 14.8246 63.4689 14.8275 63.4718 14.8305C63.4748 14.8335 63.4778 14.8364 63.4807 14.8394C63.4837 14.8423 63.4866 14.8453 63.4896 14.8483C63.4926 14.8512 63.4955 14.8542 63.4985 14.8572C63.5015 14.8601 63.5044 14.8631 63.5074 14.866C63.5104 14.869 63.5133 14.872 63.5163 14.8749C63.5192 14.8779 63.5222 14.8809 63.5252 14.8838C63.5281 14.8868 63.5311 14.8898 63.5341 14.8927C63.537 14.8957 63.54 14.8986 63.543 14.9016C63.5459 14.9046 63.5489 14.9075 63.5518 14.9105C63.5548 14.9135 63.5578 14.9164 63.5607 14.9194C63.5637 14.9224 63.5667 14.9253 63.5696 14.9283C63.5726 14.9312 63.5756 14.9342 63.5785 14.9372C63.5815 14.9401 63.5845 14.9431 63.5874 14.9461C63.5904 14.949 63.5933 14.952 63.5963 14.955C63.5993 14.9579 63.6022 14.9609 63.6052 14.9639C63.6082 14.9668 63.6111 14.9698 63.6141 14.9728C63.6171 14.9757 63.62 14.9787 63.623 14.9817C63.626 14.9846 63.6289 14.9876 63.6319 14.9905C63.6349 14.9935 63.6378 14.9965 63.6408 14.9994C63.6438 15.0024 63.6467 15.0054 63.6497 15.0083C63.6526 15.0113 63.6556 15.0143 63.6586 15.0172C63.6615 15.0202 63.6645 15.0232 63.6675 15.0261C63.6704 15.0291 63.6734 15.0321 63.6764 15.035C63.6793 15.038 63.6823 15.041 63.6853 15.0439C63.6882 15.0469 63.6912 15.0499 63.6942 15.0528C63.6971 15.0558 63.7001 15.0588 63.7031 15.0617C63.706 15.0647 63.709 15.0677 63.712 15.0706C63.7149 15.0736 63.7179 15.0766 63.7209 15.0795C63.7238 15.0825 63.7268 15.0855 63.7298 15.0884C63.7327 15.0914 63.7357 15.0943 63.7387 15.0973C63.7416 15.1003 63.7446 15.1032 63.7476 15.1062C63.7505 15.1092 63.7535 15.1121 63.7565 15.1151C63.7594 15.1181 63.7624 15.121 63.7653 15.124C63.7683 15.127 63.7713 15.1299 63.7742 15.1329C63.7772 15.1359 63.7802 15.1388 63.7831 15.1418C63.7861 15.1448 63.7891 15.1477 63.792 15.1507C63.795 15.1537 63.798 15.1566 63.8009 15.1596C63.8039 15.1626 63.8069 15.1655 63.8098 15.1685C63.8128 15.1715 63.8158 15.1744 63.8187 15.1774C63.8217 15.1804 63.8247 15.1833 63.8276 15.1863C63.8306 15.1892 63.8336 15.1922 63.8365 15.1952C63.8395 15.1981 63.8425 15.2011 63.8454 15.2041C63.8484 15.207 63.8513 15.21 63.8543 15.213C63.8573 15.2159 63.8602 15.2189 63.8632 15.2219C63.8662 15.2248 63.8691 15.2278 63.8721 15.2308C63.8751 15.2337 63.878 15.2367 63.881 15.2396C63.884 15.2426 63.8869 15.2456 63.8899 15.2485C63.8928 15.2515 63.8958 15.2545 63.8988 15.2574C63.9017 15.2604 63.9047 15.2634 63.9077 15.2663C63.9106 15.2693 63.9136 15.2723 63.9166 15.2752C63.9195 15.2782 63.9225 15.2811 63.9255 15.2841C63.9284 15.2871 63.9314 15.29 63.9343 15.293C63.9373 15.296 63.9403 15.2989 63.9432 15.3019C63.9462 15.3049 63.9492 15.3078 63.9521 15.3108C63.9551 15.3137 63.958 15.3167 63.961 15.3197C63.964 15.3226 63.9669 15.3256 63.9699 15.3286C63.9729 15.3315 63.9758 15.3345 63.9788 15.3374C63.9817 15.3404 63.9847 15.3434 63.9877 15.3463C63.9906 15.3493 63.9936 15.3522 63.9966 15.3552C63.9995 15.3582 64.0025 15.3611 64.0054 15.3641C64.0084 15.3671 64.0114 15.37 64.0143 15.373C64.0173 15.3759 64.0202 15.3789 64.0232 15.3819C64.0262 15.3848 64.0291 15.3878 64.0321 15.3907C64.035 15.3937 64.038 15.3967 64.041 15.3996C64.0439 15.4026 64.0469 15.4055 64.0498 15.4085C64.0528 15.4115 64.0558 15.4144 64.0587 15.4174C64.0617 15.4203 64.0646 15.4233 64.0676 15.4263C64.0706 15.4292 64.0735 15.4322 64.0765 15.4351C64.0794 15.4381 64.0824 15.4411 64.0854 15.444C64.0883 15.447 64.0913 15.4499 64.0942 15.4529C64.0972 15.4558 64.1001 15.4588 64.1031 15.4618C64.1061 15.4647 64.109 15.4677 64.112 15.4706C64.1149 15.4736 64.1179 15.4765 64.1208 15.4795C64.1238 15.4825 64.1268 15.4854 64.1297 15.4884C64.1327 15.4913 64.1356 15.4943 64.1386 15.4972C64.1415 15.5002 64.1445 15.5031 64.1474 15.5061C64.1504 15.5091 64.1534 15.512 64.1563 15.515C64.1593 15.5179 64.1622 15.5209 64.1652 15.5238C64.1681 15.5268 64.1711 15.5297 64.174 15.5327C64.177 15.5357 64.1799 15.5386 64.1829 15.5416C64.1859 15.5445 64.1888 15.5475 64.1918 15.5504C64.1947 15.5534 64.1977 15.5563 64.2006 15.5593C64.2036 15.5622 64.2065 15.5652 64.2095 15.5681C64.2124 15.5711 64.2154 15.574 64.2183 15.577C64.2213 15.5799 64.2242 15.5829 64.2272 15.5858C64.2301 15.5888 64.2331 15.5917 64.236 15.5947C64.239 15.5976 64.2419 15.6006 64.2449 15.6035C64.2478 15.6065 64.2508 15.6094 64.2537 15.6124C64.2567 15.6153 64.2596 15.6183 64.2626 15.6212C64.2655 15.6242 64.2685 15.6271 64.2714 15.6301C64.2744 15.633 64.2773 15.636 64.2803 15.6389C64.2832 15.6419 64.2862 15.6448 64.2891 15.6478C64.2921 15.6507 64.295 15.6537 64.298 15.6566C64.3009 15.6596 64.3039 15.6625 64.3068 15.6655C64.3097 15.6684 64.3127 15.6713 64.3156 15.6743C64.3186 15.6772 64.3215 15.6802 64.3245 15.6831C64.3274 15.6861 64.3304 15.689 64.3333 15.692C64.3363 15.6949 64.3392 15.6979 64.3421 15.7008C64.3451 15.7037 64.348 15.7067 64.351 15.7096C64.3539 15.7126 64.3569 15.7155 64.3598 15.7185C64.3627 15.7214 64.3657 15.7243 64.3686 15.7273C64.3716 15.7302 64.3745 15.7332 64.3774 15.7361C64.3804 15.739 64.3833 15.742 64.3863 15.7449C64.3892 15.7479 64.3921 15.7508 64.3951 15.7537C64.398 15.7567 64.401 15.7596 64.4039 15.7626C64.4068 15.7655 64.4098 15.7684 64.4127 15.7714C64.4157 15.7743 64.4186 15.7773 64.4215 15.7802C64.4245 15.7831 64.4274 15.7861 64.4303 15.789C64.4333 15.7919 64.4362 15.7949 64.4392 15.7978C64.4421 15.8007 64.445 15.8037 64.448 15.8066C64.4509 15.8096 64.4538 15.8125 64.4568 15.8154C64.4597 15.8184 64.4626 15.8213 64.4656 15.8242C64.4685 15.8272 64.4714 15.8301 64.4744 15.833C64.4773 15.836 64.4802 15.8389 64.4832 15.8418C64.4861 15.8448 64.489 15.8477 64.492 15.8506C64.4949 15.8535 64.4978 15.8565 64.5008 15.8594C64.5037 15.8623 64.5066 15.8653 64.5095 15.8682C64.5125 15.8711 64.5154 15.8741 64.5183 15.877C64.5213 15.8799 64.5242 15.8828 64.5271 15.8858C64.53 15.8887 64.533 15.8916 64.5359 15.8946C64.5388 15.8975 64.5418 15.9004 64.5447 15.9033C64.5476 15.9063 64.5505 15.9092 64.5535 15.9121C64.5564 15.915 64.5593 15.918 64.5622 15.9209C64.5652 15.9238 64.5681 15.9267 64.571 15.9297C64.5739 15.9326 64.5769 15.9355 64.5798 15.9384C64.5827 15.9414 64.5856 15.9443 64.5885 15.9472C64.5915 15.9501 64.5944 15.953 64.5973 15.956C64.6002 15.9589 64.6032 15.9618 64.6061 15.9647C64.609 15.9677 64.6119 15.9706 64.6148 15.9735C64.6178 15.9764 64.6207 15.9793 64.6236 15.9822C64.6265 15.9852 64.6294 15.9881 64.6323 15.991C64.6353 15.9939 64.6382 15.9968 64.6411 15.9998C64.644 16.0027 64.6469 16.0056 64.6498 16.0085C64.6528 16.0114 64.6557 16.0143 64.6586 16.0172C64.6615 16.0202 64.6644 16.0231 64.6673 16.026C64.6702 16.0289 64.6732 16.0318 64.6761 16.0347C64.679 16.0376 64.6819 16.0406 64.6848 16.0435C64.6877 16.0464 64.6906 16.0493 64.6935 16.0522C64.6965 16.0551 64.6994 16.058 64.7023 16.0609C64.7052 16.0638 64.7081 16.0667 64.711 16.0697C64.7139 16.0726 64.7168 16.0755 64.7197 16.0784C64.7226 16.0813 64.7255 16.0842 64.7284 16.0871C64.7313 16.09 64.7343 16.0929 64.7372 16.0958C64.7401 16.0987 64.743 16.1016 64.7459 16.1045C64.7488 16.1074 64.7517 16.1103 64.7546 16.1132C64.7575 16.1161 64.7604 16.1191 64.7633 16.122C64.7662 16.1249 64.7691 16.1278 64.772 16.1307C64.7749 16.1336 64.7778 16.1365 64.7807 16.1394C64.7836 16.1423 64.7865 16.1452 64.7894 16.1481C64.7923 16.151 64.7952 16.1539 64.7981 16.1568C64.801 16.1597 64.8039 16.1625 64.8068 16.1654C64.8097 16.1683 64.8126 16.1712 64.8155 16.1741C64.8184 16.177 64.8213 16.1799 64.8242 16.1828C64.8271 16.1857 64.83 16.1886 64.8328 16.1915C64.8357 16.1944 64.8386 16.1973 64.8415 16.2002C64.8444 16.2031 64.8473 16.206 64.8502 16.2089C64.8531 16.2117 64.856 16.2146 64.8589 16.2175C64.8618 16.2204 64.8646 16.2233 64.8675 16.2262C64.8704 16.2291 64.8733 16.232 64.8762 16.2349C64.8791 16.2377 64.882 16.2406 64.8849 16.2435C64.8877 16.2464 64.8906 16.2493 64.8935 16.2522C64.8964 16.2551 64.8993 16.2579 64.9022 16.2608C64.9051 16.2637 64.9079 16.2666 64.9108 16.2695C64.9137 16.2724 64.9166 16.2752 64.9195 16.2781C64.9223 16.281 64.9252 16.2839 64.9281 16.2868C64.931 16.2896 64.9339 16.2925 64.9367 16.2954C64.9396 16.2983 64.9425 16.3012 64.9454 16.304C64.9483 16.3069 64.9511 16.3098 64.954 16.3127C64.9569 16.3155 64.9598 16.3184 64.9626 16.3213C64.9655 16.3242 64.9684 16.327 64.9713 16.3299C64.9741 16.3328 64.977 16.3357 64.9799 16.3385C64.9828 16.3414 64.9856 16.3443 64.9885 16.3472C64.9914 16.35 64.9942 16.3529 64.9971 16.3558C65 16.3586 65.0028 16.3615 65.0057 16.3644C65.0086 16.3672 65.0115 16.3701 65.0143 16.373C65.0172 16.3758 65.0201 16.3787 65.0229 16.3816C65.0258 16.3844 65.0286 16.3873 65.0315 16.3902C65.0344 16.393 65.0372 16.3959 65.0401 16.3988C65.043 16.4016 65.0458 16.4045 65.0487 16.4073C65.0516 16.4102 65.0544 16.4131 65.0573 16.4159C65.0601 16.4188 65.063 16.4217 65.0659 16.4245C65.0687 16.4274 65.0716 16.4302 65.0744 16.4331C65.0773 16.4359 65.0801 16.4388 65.083 16.4417C65.0859 16.4445 65.0887 16.4474 65.0916 16.4502C65.0944 16.4531 65.0973 16.4559 65.1001 16.4588C65.103 16.4616 65.1058 16.4645 65.1087 16.4673C65.1115 16.4702 65.1144 16.473 65.1172 16.4759C65.1201 16.4787 65.1229 16.4816 65.1258 16.4844C65.1286 16.4873 65.1315 16.4901 65.1343 16.493C65.1372 16.4958 65.14 16.4987 65.1429 16.5015C65.1457 16.5044 65.1486 16.5072 65.1514 16.5101C65.1542 16.5129 65.1571 16.5157 65.1599 16.5186C65.1628 16.5214 65.1656 16.5243 65.1685 16.5271C65.1713 16.53 65.1741 16.5328 65.177 16.5356C65.1798 16.5385 65.1827 16.5413 65.1855 16.5442C65.1883 16.547 65.1912 16.5498 65.194 16.5527C65.1968 16.5555 65.1997 16.5583 65.2025 16.5612C65.2054 16.564 65.2082 16.5668 65.211 16.5697C65.2139 16.5725 65.2167 16.5753 65.2195 16.5782C65.2224 16.581 65.2252 16.5838 65.228 16.5867C65.2308 16.5895 65.2337 16.5923 65.2365 16.5952C65.2393 16.598 65.2422 16.6008 65.245 16.6036C65.2478 16.6065 65.2506 16.6093 65.2535 16.6121C65.2563 16.615 65.2591 16.6178 65.2619 16.6206C65.2648 16.6234 65.2676 16.6262 65.2704 16.6291C65.2732 16.6319 65.2761 16.6347 65.2789 16.6375C65.2817 16.6404 65.2845 16.6432 65.2873 16.646C65.2902 16.6488 65.293 16.6516 65.2958 16.6545C65.2986 16.6573 65.3014 16.6601 65.3042 16.6629C65.3071 16.6657 65.3099 16.6685 65.3127 16.6713C65.3155 16.6742 65.3183 16.677 65.3211 16.6798C65.3239 16.6826 65.3268 16.6854 65.3296 16.6882C65.3324 16.691 65.3352 16.6938 65.338 16.6967C65.3408 16.6995 65.3436 16.7023 65.3464 16.7051C65.3492 16.7079 65.352 16.7107 65.3548 16.7135C65.3576 16.7163 65.3605 16.7191 65.3633 16.7219C65.3661 16.7247 65.3689 16.7275 65.3717 16.7303C65.3745 16.7331 65.3773 16.7359 65.3801 16.7387C65.3829 16.7415 65.3857 16.7443 65.3885 16.7471C65.3913 16.7499 65.3941 16.7527 65.3969 16.7555C65.3997 16.7583 65.4025 16.7611 65.4053 16.7639C65.408 16.7667 65.4108 16.7695 65.4136 16.7723C65.4164 16.7751 65.4192 16.7779 65.422 16.7807C65.4248 16.7835 65.4276 16.7863 65.4304 16.789C65.4332 16.7918 65.436 16.7946 65.4388 16.7974C65.4415 16.8002 65.4443 16.803 65.4471 16.8058C65.4499 16.8086 65.4527 16.8113 65.4555 16.8141C65.4583 16.8169 65.461 16.8197 65.4638 16.8225C65.4666 16.8253 65.4694 16.828 65.4722 16.8308C65.475 16.8336 65.4777 16.8364 65.4805 16.8392C65.4833 16.8419 65.4861 16.8447 65.4888 16.8475C65.4916 16.8503 65.4944 16.8531 65.4972 16.8558C65.4999 16.8586 65.5027 16.8614 65.5055 16.8642C65.5083 16.8669 65.511 16.8697 65.5138 16.8725C65.5166 16.8752 65.5194 16.878 65.5221 16.8808C65.5249 16.8836 65.5277 16.8863 65.5304 16.8891C65.5332 16.8919 65.536 16.8946 65.5387 16.8974C65.5415 16.9002 65.5443 16.9029 65.547 16.9057C65.5498 16.9084 65.5526 16.9112 65.5553 16.914C65.5581 16.9167 65.5608 16.9195 65.5636 16.9223C65.5664 16.925 65.5691 16.9278 65.5719 16.9305C65.5746 16.9333 65.5774 16.936 65.5801 16.9388C65.5829 16.9416 65.5857 16.9443 65.5884 16.9471C65.5912 16.9498 65.5939 16.9526 65.5967 16.9553C65.5994 16.9581 65.6022 16.9608 65.6049 16.9636C65.6077 16.9663 65.6104 16.9691 65.6132 16.9718C65.6159 16.9746 65.6187 16.9773 65.6214 16.9801C65.6242 16.9828 65.6269 16.9856 65.6297 16.9883C65.6324 16.9911 65.6351 16.9938 65.6379 16.9965C65.6406 16.9993 65.6434 17.002 65.6461 17.0048C65.6488 17.0075 65.6516 17.0102 65.6543 17.013C65.6571 17.0157 65.6598 17.0185 65.6625 17.0212C65.6653 17.0239 65.668 17.0267 65.6707 17.0294C65.6735 17.0321 65.6762 17.0349 65.6789 17.0376C65.6817 17.0403 65.6844 17.0431 65.6871 17.0458C65.6899 17.0485 65.6926 17.0512 65.6953 17.054C65.698 17.0567 65.7008 17.0594 65.7035 17.0622C65.7062 17.0649 65.7089 17.0676 65.7117 17.0703C65.7144 17.0731 65.7171 17.0758 65.7198 17.0785C65.7226 17.0812 65.7253 17.0839 65.728 17.0867C65.7307 17.0894 65.7334 17.0921 65.7362 17.0948C65.7389 17.0975 65.7416 17.1002 65.7443 17.103C65.747 17.1057 65.7497 17.1084 65.7524 17.1111C65.7552 17.1138 65.7579 17.1165 65.7606 17.1192C65.7633 17.1219 65.766 17.1247 65.7687 17.1274C65.7714 17.1301 65.7741 17.1328 65.7768 17.1355C65.7795 17.1382 65.7822 17.1409 65.7849 17.1436C65.7877 17.1463 65.7904 17.149 65.7931 17.1517C65.7958 17.1544 65.7985 17.1571 65.8012 17.1598C65.8039 17.1625 65.8066 17.1652 65.8093 17.1679C65.812 17.1706 65.8147 17.1733 65.8173 17.176C65.82 17.1787 65.8227 17.1814 65.8254 17.1841C65.8281 17.1868 65.8308 17.1895 65.8335 17.1922C65.8362 17.1949 65.8389 17.1975 65.8416 17.2002C65.8443 17.2029 65.847 17.2056 65.8496 17.2083C65.8523 17.211 65.855 17.2137 65.8577 17.2163C65.8604 17.219 65.8631 17.2217 65.8657 17.2244C65.8684 17.2271 65.8711 17.2298 65.8738 17.2324C65.8765 17.2351 65.8791 17.2378 65.8818 17.2405C65.8845 17.2432 65.8872 17.2458 65.8898 17.2485C65.8925 17.2512 65.8952 17.2539 65.8979 17.2565C65.9005 17.2592 65.9032 17.2619 65.9059 17.2645C65.9086 17.2672 65.9112 17.2699 65.9139 17.2725C65.9166 17.2752 65.9192 17.2779 65.9219 17.2805C65.9246 17.2832 65.9272 17.2859 65.9299 17.2885C65.9325 17.2912 65.9352 17.2939 65.9379 17.2965C65.9405 17.2992 65.9432 17.3018 65.9458 17.3045C65.9485 17.3072 65.9512 17.3098 65.9538 17.3125C65.9565 17.3151 65.9591 17.3178 65.9618 17.3204C65.9644 17.3231 65.9671 17.3257 65.9697 17.3284C65.9724 17.3311 65.975 17.3337 65.9777 17.3364C65.9803 17.339 65.983 17.3416 65.9856 17.3443C65.9883 17.3469 65.9909 17.3496 65.9936 17.3522C65.9962 17.3549 65.9989 17.3575 66.0015 17.3602C66.0041 17.3628 66.0068 17.3654 66.0094 17.3681C66.0121 17.3707 66.0147 17.3734 66.0173 17.376C66.02 17.3786 66.0226 17.3813 66.0252 17.3839C66.0279 17.3865 66.0305 17.3892 66.0331 17.3918C66.0358 17.3944 66.0384 17.3971 66.041 17.3997C66.0437 17.4023 66.0463 17.4049 66.0489 17.4076C66.0515 17.4102 66.0542 17.4128 66.0568 17.4155C66.0594 17.4181 66.062 17.4207 66.0647 17.4233C66.0673 17.4259 66.0699 17.4286 66.0725 17.4312C66.0751 17.4338 66.0778 17.4364 66.0804 17.439C66.083 17.4417 66.0856 17.4443 66.0882 17.4469C66.0908 17.4495 66.0935 17.4521 66.0961 17.4547C66.0987 17.4573 66.1013 17.4599 66.1039 17.4626C66.1065 17.4652 66.1091 17.4678 66.1117 17.4704C66.1143 17.473 66.1169 17.4756 66.1195 17.4782C66.1221 17.4808 66.1247 17.4834 66.1273 17.486C66.1299 17.4886 66.1325 17.4912 66.1351 17.4938C66.1377 17.4964 66.1403 17.499 66.1429 17.5016C66.1455 17.5042 66.1481 17.5068 66.1507 17.5094C66.1533 17.512 66.1559 17.5146 66.1585 17.5172C66.1611 17.5197 66.1637 17.5223 66.1663 17.5249C66.1689 17.5275 66.1714 17.5301 66.174 17.5327C66.1766 17.5353 66.1792 17.5379 66.1818 17.5404L67.596 16.1262C67.5934 16.1236 67.5908 16.1211 67.5882 16.1185C67.5857 16.1159 67.5831 16.1133 67.5805 16.1107C67.5779 16.1081 67.5753 16.1055 67.5727 16.1029C67.5701 16.1004 67.5675 16.0978 67.5649 16.0952C67.5623 16.0926 67.5597 16.09 67.5572 16.0874C67.5546 16.0848 67.552 16.0822 67.5494 16.0796C67.5468 16.077 67.5442 16.0744 67.5416 16.0718C67.539 16.0692 67.5364 16.0666 67.5338 16.064C67.5311 16.0614 67.5285 16.0588 67.5259 16.0562C67.5233 16.0536 67.5207 16.051 67.5181 16.0483C67.5155 16.0457 67.5129 16.0431 67.5103 16.0405C67.5077 16.0379 67.5051 16.0353 67.5024 16.0327C67.4998 16.0301 67.4972 16.0274 67.4946 16.0248C67.492 16.0222 67.4894 16.0196 67.4867 16.017C67.4841 16.0144 67.4815 16.0117 67.4789 16.0091C67.4763 16.0065 67.4736 16.0039 67.471 16.0012C67.4684 15.9986 67.4658 15.996 67.4631 15.9934C67.4605 15.9907 67.4579 15.9881 67.4552 15.9855C67.4526 15.9828 67.45 15.9802 67.4474 15.9776C67.4447 15.975 67.4421 15.9723 67.4395 15.9697C67.4368 15.9671 67.4342 15.9644 67.4316 15.9618C67.4289 15.9591 67.4263 15.9565 67.4236 15.9539C67.421 15.9512 67.4184 15.9486 67.4157 15.9459C67.4131 15.9433 67.4104 15.9407 67.4078 15.938C67.4051 15.9354 67.4025 15.9327 67.3999 15.9301C67.3972 15.9274 67.3946 15.9248 67.3919 15.9221C67.3893 15.9195 67.3866 15.9168 67.384 15.9142C67.3813 15.9115 67.3787 15.9089 67.376 15.9062C67.3733 15.9036 67.3707 15.9009 67.368 15.8983C67.3654 15.8956 67.3627 15.893 67.3601 15.8903C67.3574 15.8876 67.3547 15.885 67.3521 15.8823C67.3494 15.8797 67.3468 15.877 67.3441 15.8743C67.3414 15.8717 67.3388 15.869 67.3361 15.8663C67.3334 15.8637 67.3308 15.861 67.3281 15.8583C67.3254 15.8557 67.3228 15.853 67.3201 15.8503C67.3174 15.8477 67.3148 15.845 67.3121 15.8423C67.3094 15.8396 67.3067 15.837 67.3041 15.8343C67.3014 15.8316 67.2987 15.8289 67.296 15.8263C67.2934 15.8236 67.2907 15.8209 67.288 15.8182C67.2853 15.8155 67.2826 15.8129 67.28 15.8102C67.2773 15.8075 67.2746 15.8048 67.2719 15.8021C67.2692 15.7995 67.2665 15.7968 67.2639 15.7941C67.2612 15.7914 67.2585 15.7887 67.2558 15.786C67.2531 15.7833 67.2504 15.7806 67.2477 15.7779C67.245 15.7753 67.2423 15.7726 67.2396 15.7699C67.2369 15.7672 67.2343 15.7645 67.2316 15.7618C67.2289 15.7591 67.2262 15.7564 67.2235 15.7537C67.2208 15.751 67.2181 15.7483 67.2154 15.7456C67.2127 15.7429 67.21 15.7402 67.2073 15.7375C67.2046 15.7348 67.2019 15.7321 67.1992 15.7294C67.1965 15.7267 67.1938 15.724 67.191 15.7213C67.1883 15.7186 67.1856 15.7159 67.1829 15.7132C67.1802 15.7104 67.1775 15.7077 67.1748 15.705C67.1721 15.7023 67.1694 15.6996 67.1667 15.6969C67.1639 15.6942 67.1612 15.6915 67.1585 15.6887C67.1558 15.686 67.1531 15.6833 67.1504 15.6806C67.1477 15.6779 67.1449 15.6752 67.1422 15.6724C67.1395 15.6697 67.1368 15.667 67.1341 15.6643C67.1313 15.6616 67.1286 15.6588 67.1259 15.6561C67.1232 15.6534 67.1204 15.6507 67.1177 15.6479C67.115 15.6452 67.1123 15.6425 67.1095 15.6398C67.1068 15.637 67.1041 15.6343 67.1013 15.6316C67.0986 15.6288 67.0959 15.6261 67.0932 15.6234C67.0904 15.6206 67.0877 15.6179 67.085 15.6152C67.0822 15.6124 67.0795 15.6097 67.0767 15.607C67.074 15.6042 67.0713 15.6015 67.0685 15.5988C67.0658 15.596 67.0631 15.5933 67.0603 15.5905C67.0576 15.5878 67.0548 15.5851 67.0521 15.5823C67.0494 15.5796 67.0466 15.5768 67.0439 15.5741C67.0411 15.5714 67.0384 15.5686 67.0356 15.5659C67.0329 15.5631 67.0301 15.5604 67.0274 15.5576C67.0246 15.5549 67.0219 15.5521 67.0191 15.5494C67.0164 15.5466 67.0136 15.5439 67.0109 15.5411C67.0081 15.5384 67.0054 15.5356 67.0026 15.5329C66.9999 15.5301 66.9971 15.5273 66.9944 15.5246C66.9916 15.5218 66.9888 15.5191 66.9861 15.5163C66.9833 15.5136 66.9806 15.5108 66.9778 15.508C66.9751 15.5053 66.9723 15.5025 66.9695 15.4998C66.9668 15.497 66.964 15.4942 66.9612 15.4915C66.9585 15.4887 66.9557 15.4859 66.9529 15.4832C66.9502 15.4804 66.9474 15.4776 66.9446 15.4749C66.9419 15.4721 66.9391 15.4693 66.9363 15.4666C66.9336 15.4638 66.9308 15.461 66.928 15.4583C66.9253 15.4555 66.9225 15.4527 66.9197 15.4499C66.9169 15.4472 66.9142 15.4444 66.9114 15.4416C66.9086 15.4388 66.9058 15.4361 66.9031 15.4333C66.9003 15.4305 66.8975 15.4277 66.8947 15.425C66.8919 15.4222 66.8892 15.4194 66.8864 15.4166C66.8836 15.4138 66.8808 15.4111 66.878 15.4083C66.8753 15.4055 66.8725 15.4027 66.8697 15.3999C66.8669 15.3971 66.8641 15.3943 66.8613 15.3916C66.8585 15.3888 66.8558 15.386 66.853 15.3832C66.8502 15.3804 66.8474 15.3776 66.8446 15.3748C66.8418 15.372 66.839 15.3693 66.8362 15.3665C66.8334 15.3637 66.8306 15.3609 66.8279 15.3581C66.8251 15.3553 66.8223 15.3525 66.8195 15.3497C66.8167 15.3469 66.8139 15.3441 66.8111 15.3413C66.8083 15.3385 66.8055 15.3357 66.8027 15.3329C66.7999 15.3301 66.7971 15.3273 66.7943 15.3245C66.7915 15.3217 66.7887 15.3189 66.7859 15.3161C66.7831 15.3133 66.7803 15.3105 66.7775 15.3077C66.7747 15.3049 66.7719 15.3021 66.7691 15.2993C66.7662 15.2965 66.7634 15.2937 66.7606 15.2909C66.7578 15.2881 66.755 15.2852 66.7522 15.2824C66.7494 15.2796 66.7466 15.2768 66.7438 15.274C66.741 15.2712 66.7382 15.2684 66.7353 15.2656C66.7325 15.2628 66.7297 15.2599 66.7269 15.2571C66.7241 15.2543 66.7213 15.2515 66.7185 15.2487C66.7156 15.2459 66.7128 15.2431 66.71 15.2402C66.7072 15.2374 66.7044 15.2346 66.7016 15.2318C66.6987 15.229 66.6959 15.2261 66.6931 15.2233C66.6903 15.2205 66.6875 15.2177 66.6846 15.2149C66.6818 15.212 66.679 15.2092 66.6762 15.2064C66.6733 15.2036 66.6705 15.2007 66.6677 15.1979C66.6649 15.1951 66.662 15.1923 66.6592 15.1894C66.6564 15.1866 66.6535 15.1838 66.6507 15.1809C66.6479 15.1781 66.6451 15.1753 66.6422 15.1725C66.6394 15.1696 66.6366 15.1668 66.6337 15.164C66.6309 15.1611 66.6281 15.1583 66.6252 15.1555C66.6224 15.1526 66.6196 15.1498 66.6167 15.147C66.6139 15.1441 66.6111 15.1413 66.6082 15.1385C66.6054 15.1356 66.6026 15.1328 66.5997 15.1299C66.5969 15.1271 66.594 15.1243 66.5912 15.1214C66.5884 15.1186 66.5855 15.1157 66.5827 15.1129C66.5798 15.1101 66.577 15.1072 66.5741 15.1044C66.5713 15.1015 66.5685 15.0987 66.5656 15.0958C66.5628 15.093 66.5599 15.0902 66.5571 15.0873C66.5542 15.0845 66.5514 15.0816 66.5485 15.0788C66.5457 15.0759 66.5428 15.0731 66.54 15.0702C66.5371 15.0674 66.5343 15.0645 66.5314 15.0617C66.5286 15.0588 66.5257 15.056 66.5229 15.0531C66.52 15.0503 66.5172 15.0474 66.5143 15.0446C66.5115 15.0417 66.5086 15.0389 66.5058 15.036C66.5029 15.0332 66.5001 15.0303 66.4972 15.0274C66.4944 15.0246 66.4915 15.0217 66.4886 15.0189C66.4858 15.016 66.4829 15.0132 66.4801 15.0103C66.4772 15.0074 66.4743 15.0046 66.4715 15.0017C66.4686 14.9989 66.4658 14.996 66.4629 14.9931C66.46 14.9903 66.4572 14.9874 66.4543 14.9845C66.4515 14.9817 66.4486 14.9788 66.4457 14.976C66.4429 14.9731 66.44 14.9702 66.4371 14.9674C66.4343 14.9645 66.4314 14.9616 66.4285 14.9588C66.4257 14.9559 66.4228 14.953 66.4199 14.9502C66.4171 14.9473 66.4142 14.9444 66.4113 14.9416C66.4085 14.9387 66.4056 14.9358 66.4027 14.9329C66.3998 14.9301 66.397 14.9272 66.3941 14.9243C66.3912 14.9215 66.3884 14.9186 66.3855 14.9157C66.3826 14.9128 66.3797 14.91 66.3769 14.9071C66.374 14.9042 66.3711 14.9013 66.3682 14.8985C66.3654 14.8956 66.3625 14.8927 66.3596 14.8898C66.3567 14.8869 66.3538 14.8841 66.351 14.8812C66.3481 14.8783 66.3452 14.8754 66.3423 14.8726C66.3394 14.8697 66.3366 14.8668 66.3337 14.8639C66.3308 14.861 66.3279 14.8581 66.325 14.8553C66.3222 14.8524 66.3193 14.8495 66.3164 14.8466C66.3135 14.8437 66.3106 14.8408 66.3077 14.838C66.3048 14.8351 66.302 14.8322 66.2991 14.8293C66.2962 14.8264 66.2933 14.8235 66.2904 14.8206C66.2875 14.8178 66.2846 14.8149 66.2818 14.812C66.2789 14.8091 66.276 14.8062 66.2731 14.8033C66.2702 14.8004 66.2673 14.7975 66.2644 14.7946C66.2615 14.7918 66.2586 14.7889 66.2557 14.786C66.2528 14.7831 66.25 14.7802 66.2471 14.7773C66.2442 14.7744 66.2413 14.7715 66.2384 14.7686C66.2355 14.7657 66.2326 14.7628 66.2297 14.7599C66.2268 14.757 66.2239 14.7541 66.221 14.7512C66.2181 14.7483 66.2152 14.7454 66.2123 14.7425C66.2094 14.7396 66.2065 14.7367 66.2036 14.7338C66.2007 14.7309 66.1978 14.728 66.1949 14.7251C66.192 14.7222 66.1891 14.7193 66.1862 14.7164C66.1833 14.7135 66.1804 14.7106 66.1775 14.7077C66.1746 14.7048 66.1717 14.7019 66.1688 14.699C66.1659 14.6961 66.163 14.6932 66.1601 14.6903C66.1572 14.6874 66.1543 14.6845 66.1514 14.6816C66.1485 14.6787 66.1456 14.6758 66.1427 14.6729C66.1397 14.67 66.1368 14.6671 66.1339 14.6642C66.131 14.6613 66.1281 14.6583 66.1252 14.6554C66.1223 14.6525 66.1194 14.6496 66.1165 14.6467C66.1136 14.6438 66.1107 14.6409 66.1078 14.638C66.1048 14.6351 66.1019 14.6322 66.099 14.6292C66.0961 14.6263 66.0932 14.6234 66.0903 14.6205C66.0874 14.6176 66.0845 14.6147 66.0815 14.6118C66.0786 14.6089 66.0757 14.6059 66.0728 14.603C66.0699 14.6001 66.067 14.5972 66.0641 14.5943C66.0611 14.5914 66.0582 14.5885 66.0553 14.5855C66.0524 14.5826 66.0495 14.5797 66.0466 14.5768C66.0436 14.5739 66.0407 14.571 66.0378 14.568C66.0349 14.5651 66.032 14.5622 66.029 14.5593C66.0261 14.5564 66.0232 14.5534 66.0203 14.5505C66.0174 14.5476 66.0144 14.5447 66.0115 14.5418C66.0086 14.5388 66.0057 14.5359 66.0028 14.533C65.9998 14.5301 65.9969 14.5271 65.994 14.5242C65.9911 14.5213 65.9881 14.5184 65.9852 14.5155C65.9823 14.5125 65.9794 14.5096 65.9764 14.5067C65.9735 14.5038 65.9706 14.5008 65.9677 14.4979C65.9647 14.495 65.9618 14.4921 65.9589 14.4891C65.956 14.4862 65.953 14.4833 65.9501 14.4803C65.9472 14.4774 65.9443 14.4745 65.9413 14.4716C65.9384 14.4686 65.9355 14.4657 65.9325 14.4628C65.9296 14.4598 65.9267 14.4569 65.9238 14.454C65.9208 14.4511 65.9179 14.4481 65.915 14.4452C65.912 14.4423 65.9091 14.4393 65.9062 14.4364C65.9032 14.4335 65.9003 14.4305 65.8974 14.4276C65.8944 14.4247 65.8915 14.4217 65.8886 14.4188C65.8856 14.4159 65.8827 14.4129 65.8798 14.41C65.8768 14.4071 65.8739 14.4041 65.871 14.4012C65.868 14.3983 65.8651 14.3953 65.8622 14.3924C65.8592 14.3895 65.8563 14.3865 65.8534 14.3836C65.8504 14.3807 65.8475 14.3777 65.8446 14.3748C65.8416 14.3719 65.8387 14.3689 65.8357 14.366C65.8328 14.363 65.8299 14.3601 65.8269 14.3572C65.824 14.3542 65.8211 14.3513 65.8181 14.3483C65.8152 14.3454 65.8122 14.3425 65.8093 14.3395C65.8064 14.3366 65.8034 14.3337 65.8005 14.3307C65.7975 14.3278 65.7946 14.3248 65.7917 14.3219C65.7887 14.3189 65.7858 14.316 65.7828 14.3131C65.7799 14.3101 65.777 14.3072 65.774 14.3042C65.7711 14.3013 65.7681 14.2984 65.7652 14.2954C65.7622 14.2925 65.7593 14.2895 65.7564 14.2866C65.7534 14.2836 65.7505 14.2807 65.7475 14.2778C65.7446 14.2748 65.7416 14.2719 65.7387 14.2689C65.7357 14.266 65.7328 14.263 65.7299 14.2601C65.7269 14.2571 65.724 14.2542 65.721 14.2512C65.7181 14.2483 65.7151 14.2454 65.7122 14.2424C65.7092 14.2395 65.7063 14.2365 65.7033 14.2336C65.7004 14.2306 65.6974 14.2277 65.6945 14.2247C65.6915 14.2218 65.6886 14.2188 65.6856 14.2159C65.6827 14.2129 65.6798 14.21 65.6768 14.207C65.6739 14.2041 65.6709 14.2011 65.668 14.1982C65.665 14.1952 65.6621 14.1923 65.6591 14.1893C65.6562 14.1864 65.6532 14.1834 65.6503 14.1805C65.6473 14.1775 65.6444 14.1746 65.6414 14.1716C65.6384 14.1687 65.6355 14.1657 65.6325 14.1628C65.6296 14.1598 65.6266 14.1569 65.6237 14.1539C65.6207 14.151 65.6178 14.148 65.6148 14.1451C65.6119 14.1421 65.6089 14.1392 65.606 14.1362C65.603 14.1333 65.6001 14.1303 65.5971 14.1273C65.5942 14.1244 65.5912 14.1214 65.5883 14.1185C65.5853 14.1155 65.5823 14.1126 65.5794 14.1096C65.5764 14.1067 65.5735 14.1037 65.5705 14.1008C65.5676 14.0978 65.5646 14.0948 65.5617 14.0919C65.5587 14.0889 65.5557 14.086 65.5528 14.083C65.5498 14.0801 65.5469 14.0771 65.5439 14.0742C65.541 14.0712 65.538 14.0682 65.5351 14.0653C65.5321 14.0623 65.5291 14.0594 65.5262 14.0564C65.5232 14.0535 65.5203 14.0505 65.5173 14.0475C65.5144 14.0446 65.5114 14.0416 65.5084 14.0387C65.5055 14.0357 65.5025 14.0328 65.4996 14.0298C65.4966 14.0268 65.4936 14.0239 65.4907 14.0209C65.4877 14.018 65.4848 14.015 65.4818 14.012C65.4789 14.0091 65.4759 14.0061 65.4729 14.0032C65.47 14.0002 65.467 13.9972 65.4641 13.9943C65.4611 13.9913 65.4581 13.9884 65.4552 13.9854C65.4522 13.9824 65.4493 13.9795 65.4463 13.9765C65.4433 13.9736 65.4404 13.9706 65.4374 13.9676C65.4345 13.9647 65.4315 13.9617 65.4285 13.9588C65.4256 13.9558 65.4226 13.9528 65.4197 13.9499C65.4167 13.9469 65.4137 13.944 65.4108 13.941C65.4078 13.938 65.4048 13.9351 65.4019 13.9321C65.3989 13.9291 65.396 13.9262 65.393 13.9232C65.39 13.9203 65.3871 13.9173 65.3841 13.9143C65.3811 13.9114 65.3782 13.9084 65.3752 13.9055C65.3723 13.9025 65.3693 13.8995 65.3663 13.8966C65.3634 13.8936 65.3604 13.8906 65.3574 13.8877C65.3545 13.8847 65.3515 13.8817 65.3486 13.8788C65.3456 13.8758 65.3426 13.8729 65.3397 13.8699C65.3367 13.8669 65.3337 13.864 65.3308 13.861C65.3278 13.858 65.3248 13.8551 65.3219 13.8521C65.3189 13.8491 65.316 13.8462 65.313 13.8432C65.31 13.8403 65.3071 13.8373 65.3041 13.8343C65.3011 13.8314 65.2982 13.8284 65.2952 13.8254C65.2922 13.8225 65.2893 13.8195 65.2863 13.8165C65.2833 13.8136 65.2804 13.8106 65.2774 13.8076C65.2745 13.8047 65.2715 13.8017 65.2685 13.7988C65.2656 13.7958 65.2626 13.7928 65.2596 13.7899C65.2567 13.7869 65.2537 13.7839 65.2507 13.781C65.2478 13.778 65.2448 13.775 65.2418 13.7721C65.2389 13.7691 65.2359 13.7661 65.2329 13.7632C65.23 13.7602 65.227 13.7572 65.224 13.7543C65.2211 13.7513 65.2181 13.7483 65.2151 13.7454C65.2122 13.7424 65.2092 13.7394 65.2063 13.7365C65.2033 13.7335 65.2003 13.7306 65.1974 13.7276C65.1944 13.7246 65.1914 13.7217 65.1885 13.7187C65.1855 13.7157 65.1825 13.7128 65.1796 13.7098C65.1766 13.7068 65.1736 13.7039 65.1707 13.7009C65.1677 13.6979 65.1647 13.695 65.1618 13.692C65.1588 13.689 65.1558 13.6861 65.1529 13.6831C65.1499 13.6801 65.1469 13.6772 65.144 13.6742C65.141 13.6712 65.138 13.6683 65.1351 13.6653C65.1321 13.6623 65.1291 13.6594 65.1262 13.6564C65.1232 13.6534 65.1202 13.6505 65.1173 13.6475C65.1143 13.6445 65.1113 13.6416 65.1084 13.6386C65.1054 13.6356 65.1025 13.6327 65.0995 13.6297C65.0965 13.6267 65.0936 13.6238 65.0906 13.6208C65.0876 13.6179 65.0847 13.6149 65.0817 13.6119C65.0787 13.609 65.0758 13.606 65.0728 13.603C65.0698 13.6001 65.0669 13.5971 65.0639 13.5941C65.0609 13.5912 65.058 13.5882 65.055 13.5852C65.052 13.5823 65.0491 13.5793 65.0461 13.5763C65.0431 13.5734 65.0402 13.5704 65.0372 13.5674C65.0342 13.5645 65.0313 13.5615 65.0283 13.5585C65.0253 13.5556 65.0224 13.5526 65.0194 13.5496C65.0165 13.5467 65.0135 13.5437 65.0105 13.5408C65.0076 13.5378 65.0046 13.5348 65.0016 13.5319C64.9987 13.5289 64.9957 13.5259 64.9927 13.523C64.9898 13.52 64.9868 13.517 64.9838 13.5141C64.9809 13.5111 64.9779 13.5081 64.9749 13.5052C64.972 13.5022 64.969 13.4993 64.9661 13.4963C64.9631 13.4933 64.9601 13.4904 64.9572 13.4874C64.9542 13.4844 64.9512 13.4815 64.9483 13.4785C64.9453 13.4755 64.9423 13.4726 64.9394 13.4696C64.9364 13.4666 64.9335 13.4637 64.9305 13.4607C64.9275 13.4578 64.9246 13.4548 64.9216 13.4518C64.9186 13.4489 64.9157 13.4459 64.9127 13.4429C64.9097 13.44 64.9068 13.437 64.9038 13.4341C64.9009 13.4311 64.8979 13.4281 64.8949 13.4252C64.892 13.4222 64.889 13.4192 64.8861 13.4163C64.8831 13.4133 64.8801 13.4104 64.8772 13.4074C64.8742 13.4044 64.8712 13.4015 64.8683 13.3985C64.8653 13.3955 64.8624 13.3926 64.8594 13.3896C64.8564 13.3867 64.8535 13.3837 64.8505 13.3807C64.8476 13.3778 64.8446 13.3748 64.8416 13.3719C64.8387 13.3689 64.8357 13.3659 64.8327 13.363C64.8298 13.36 64.8268 13.3571 64.8239 13.3541C64.8209 13.3511 64.8179 13.3482 64.815 13.3452C64.812 13.3423 64.8091 13.3393 64.8061 13.3363C64.8031 13.3334 64.8002 13.3304 64.7972 13.3275C64.7943 13.3245 64.7913 13.3215 64.7884 13.3186C64.7854 13.3156 64.7824 13.3127 64.7795 13.3097C64.7765 13.3067 64.7736 13.3038 64.7706 13.3008C64.7676 13.2979 64.7647 13.2949 64.7617 13.292C64.7588 13.289 64.7558 13.286 64.7529 13.2831C64.7499 13.2801 64.7469 13.2772 64.744 13.2742C64.741 13.2713 64.7381 13.2683 64.7351 13.2653C64.7322 13.2624 64.7292 13.2594 64.7262 13.2565C64.7233 13.2535 64.7203 13.2506 64.7174 13.2476C64.7144 13.2447 64.7115 13.2417 64.7085 13.2387C64.7056 13.2358 64.7026 13.2328 64.6997 13.2299C64.6967 13.2269 64.6937 13.224 64.6908 13.221C64.6878 13.2181 64.6849 13.2151 64.6819 13.2122C64.679 13.2092 64.676 13.2062 64.6731 13.2033C64.6701 13.2003 64.6672 13.1974 64.6642 13.1944C64.6613 13.1915 64.6583 13.1885 64.6553 13.1856C64.6524 13.1826 64.6494 13.1797 64.6465 13.1767C64.6435 13.1738 64.6406 13.1708 64.6376 13.1679C64.6347 13.1649 64.6317 13.162 64.6288 13.159C64.6258 13.1561 64.6229 13.1531 64.6199 13.1502C64.617 13.1472 64.614 13.1443 64.6111 13.1413C64.6081 13.1384 64.6052 13.1354 64.6022 13.1325C64.5993 13.1295 64.5963 13.1266 64.5934 13.1236C64.5904 13.1207 64.5875 13.1177 64.5845 13.1148C64.5816 13.1118 64.5787 13.1089 64.5757 13.1059C64.5728 13.103 64.5698 13.1 64.5669 13.0971C64.5639 13.0941 64.561 13.0912 64.558 13.0883C64.5551 13.0853 64.5521 13.0824 64.5492 13.0794C64.5462 13.0765 64.5433 13.0735 64.5403 13.0706C64.5374 13.0676 64.5345 13.0647 64.5315 13.0617C64.5286 13.0588 64.5256 13.0559 64.5227 13.0529C64.5197 13.05 64.5168 13.047 64.5139 13.0441C64.5109 13.0411 64.508 13.0382 64.505 13.0353C64.5021 13.0323 64.4991 13.0294 64.4962 13.0264C64.4933 13.0235 64.4903 13.0205 64.4874 13.0176C64.4844 13.0147 64.4815 13.0117 64.4786 13.0088C64.4756 13.0058 64.4727 13.0029 64.4697 13C64.4668 12.997 64.4639 12.9941 64.4609 12.9911C64.458 12.9882 64.455 12.9853 64.4521 12.9823C64.4492 12.9794 64.4462 12.9765 64.4433 12.9735C64.4403 12.9706 64.4374 12.9676 64.4345 12.9647C64.4315 12.9618 64.4286 12.9588 64.4257 12.9559C64.4227 12.953 64.4198 12.95 64.4169 12.9471C64.4139 12.9442 64.411 12.9412 64.4081 12.9383C64.4051 12.9353 64.4022 12.9324 64.3992 12.9295C64.3963 12.9265 64.3934 12.9236 64.3904 12.9207C64.3875 12.9177 64.3846 12.9148 64.3816 12.9119C64.3787 12.9089 64.3758 12.906 64.3729 12.9031C64.3699 12.9002 64.367 12.8972 64.3641 12.8943C64.3611 12.8914 64.3582 12.8884 64.3553 12.8855C64.3523 12.8826 64.3494 12.8796 64.3465 12.8767C64.3436 12.8738 64.3406 12.8709 64.3377 12.8679C64.3348 12.865 64.3318 12.8621 64.3289 12.8591C64.326 12.8562 64.3231 12.8533 64.3201 12.8504C64.3172 12.8474 64.3143 12.8445 64.3114 12.8416C64.3084 12.8387 64.3055 12.8357 64.3026 12.8328C64.2997 12.8299 64.2967 12.827 64.2938 12.824C64.2909 12.8211 64.288 12.8182 64.285 12.8153C64.2821 12.8123 64.2792 12.8094 64.2763 12.8065C64.2733 12.8036 64.2704 12.8007 64.2675 12.7977C64.2646 12.7948 64.2617 12.7919 64.2587 12.789C64.2558 12.786 64.2529 12.7831 64.25 12.7802C64.2471 12.7773 64.2441 12.7744 64.2412 12.7715C64.2383 12.7685 64.2354 12.7656 64.2325 12.7627C64.2295 12.7598 64.2266 12.7569 64.2237 12.7539C64.2208 12.751 64.2179 12.7481 64.215 12.7452C64.212 12.7423 64.2091 12.7394 64.2062 12.7365C64.2033 12.7335 64.2004 12.7306 64.1975 12.7277C64.1946 12.7248 64.1916 12.7219 64.1887 12.719C64.1858 12.7161 64.1829 12.7131 64.18 12.7102C64.1771 12.7073 64.1742 12.7044 64.1713 12.7015C64.1684 12.6986 64.1654 12.6957 64.1625 12.6928C64.1596 12.6899 64.1567 12.6869 64.1538 12.684C64.1509 12.6811 64.148 12.6782 64.1451 12.6753C64.1422 12.6724 64.1393 12.6695 64.1364 12.6666C64.1335 12.6637 64.1305 12.6608 64.1276 12.6579C64.1247 12.655 64.1218 12.6521 64.1189 12.6492C64.116 12.6463 64.1131 12.6433 64.1102 12.6404C64.1073 12.6375 64.1044 12.6346 64.1015 12.6317C64.0986 12.6288 64.0957 12.6259 64.0928 12.623C64.0899 12.6201 64.087 12.6172 64.0841 12.6143C64.0812 12.6114 64.0783 12.6085 64.0754 12.6056C64.0725 12.6027 64.0696 12.5998 64.0667 12.5969C64.0638 12.594 64.0609 12.5911 64.058 12.5882C64.0551 12.5853 64.0522 12.5824 64.0493 12.5795C64.0464 12.5767 64.0435 12.5738 64.0406 12.5709C64.0377 12.568 64.0348 12.5651 64.032 12.5622C64.0291 12.5593 64.0262 12.5564 64.0233 12.5535C64.0204 12.5506 64.0175 12.5477 64.0146 12.5448C64.0117 12.5419 64.0088 12.539 64.0059 12.5362C64.003 12.5333 64.0001 12.5304 63.9973 12.5275C63.9944 12.5246 63.9915 12.5217 63.9886 12.5188C63.9857 12.5159 63.9828 12.513 63.9799 12.5102C63.977 12.5073 63.9742 12.5044 63.9713 12.5015C63.9684 12.4986 63.9655 12.4957 63.9626 12.4929C63.9597 12.49 63.9569 12.4871 63.954 12.4842C63.9511 12.4813 63.9482 12.4784 63.9453 12.4756C63.9424 12.4727 63.9396 12.4698 63.9367 12.4669C63.9338 12.464 63.9309 12.4612 63.928 12.4583C63.9252 12.4554 63.9223 12.4525 63.9194 12.4496C63.9165 12.4468 63.9137 12.4439 63.9108 12.441C63.9079 12.4381 63.905 12.4353 63.9021 12.4324C63.8993 12.4295 63.8964 12.4266 63.8935 12.4238C63.8906 12.4209 63.8878 12.418 63.8849 12.4151C63.882 12.4123 63.8792 12.4094 63.8763 12.4065C63.8734 12.4036 63.8705 12.4008 63.8677 12.3979C63.8648 12.395 63.8619 12.3922 63.8591 12.3893C63.8562 12.3864 63.8533 12.3836 63.8505 12.3807C63.8476 12.3778 63.8447 12.375 63.8419 12.3721C63.839 12.3692 63.8361 12.3664 63.8333 12.3635C63.8304 12.3606 63.8275 12.3578 63.8247 12.3549C63.8218 12.352 63.819 12.3492 63.8161 12.3463C63.8132 12.3435 63.8104 12.3406 63.8075 12.3377C63.8046 12.3349 63.8018 12.332 63.7989 12.3292C63.7961 12.3263 63.7932 12.3234 63.7903 12.3206C63.7875 12.3177 63.7846 12.3149 63.7818 12.312C63.7789 12.3092 63.7761 12.3063 63.7732 12.3034C63.7704 12.3006 63.7675 12.2977 63.7647 12.2949C63.7618 12.292 63.7589 12.2892 63.7561 12.2863C63.7532 12.2835 63.7504 12.2806 63.7475 12.2778C63.7447 12.2749 63.7418 12.2721 63.739 12.2692C63.7361 12.2664 63.7333 12.2635 63.7304 12.2607C63.7276 12.2578 63.7248 12.255 63.7219 12.2521C63.7191 12.2493 63.7162 12.2464 63.7134 12.2436C63.7105 12.2408 63.7077 12.2379 63.7048 12.2351C63.702 12.2322 63.6992 12.2294 63.6963 12.2265C63.6935 12.2237 63.6906 12.2209 63.6878 12.218C63.6849 12.2152 63.6821 12.2123 63.6793 12.2095C63.6764 12.2067 63.6736 12.2038 63.6708 12.201C63.6679 12.1981 63.6651 12.1953 63.6622 12.1925C63.6594 12.1896 63.6566 12.1868 63.6537 12.184C63.6509 12.1811 63.6481 12.1783 63.6452 12.1755C63.6424 12.1726 63.6396 12.1698 63.6367 12.167C63.6339 12.1641 63.6311 12.1613 63.6283 12.1585C63.6254 12.1557 63.6226 12.1528 63.6198 12.15C63.6169 12.1472 63.6141 12.1443 63.6113 12.1415C63.6085 12.1387 63.6056 12.1359 63.6028 12.133C63.6 12.1302 63.5972 12.1274 63.5943 12.1246C63.5915 12.1218 63.5887 12.1189 63.5859 12.1161C63.5831 12.1133 63.5802 12.1105 63.5774 12.1076C63.5746 12.1048 63.5718 12.102 63.569 12.0992C63.5661 12.0964 63.5633 12.0936 63.5605 12.0907C63.5577 12.0879 63.5549 12.0851 63.5521 12.0823C63.5493 12.0795 63.5464 12.0767 63.5436 12.0739C63.5408 12.071 63.538 12.0682 63.5352 12.0654C63.5324 12.0626 63.5296 12.0598 63.5268 12.057C63.5239 12.0542 63.5211 12.0514 63.5183 12.0486C63.5155 12.0458 63.5127 12.0429 63.5099 12.0401C63.5071 12.0373 63.5043 12.0345 63.5015 12.0317C63.4987 12.0289 63.4959 12.0261 63.4931 12.0233C63.4903 12.0205 63.4875 12.0177 63.4847 12.0149C63.4819 12.0121 63.4791 12.0093 63.4763 12.0065C63.4735 12.0037 63.4707 12.0009 63.4679 11.9981C63.4651 11.9953 63.4623 11.9925 63.4595 11.9897C63.4567 11.9869 63.4539 11.9841 63.4511 11.9813C63.4483 11.9785 63.4455 11.9758 63.4427 11.973C63.4399 11.9702 63.4371 11.9674 63.4344 11.9646C63.4316 11.9618 63.4288 11.959 63.426 11.9562C63.4232 11.9534 63.4204 11.9506 63.4176 11.9479C63.4148 11.9451 63.4121 11.9423 63.4093 11.9395C63.4065 11.9367 63.4037 11.9339 63.4009 11.9311C63.3981 11.9284 63.3954 11.9256 63.3926 11.9228C63.3898 11.92 63.387 11.9172 63.3842 11.9145C63.3814 11.9117 63.3787 11.9089 63.3759 11.9061C63.3731 11.9033 63.3703 11.9006 63.3676 11.8978C63.3648 11.895 63.362 11.8922 63.3592 11.8895C63.3565 11.8867 63.3537 11.8839 63.3509 11.8812C63.3481 11.8784 63.3454 11.8756 63.3426 11.8728C63.3398 11.8701 63.3371 11.8673 63.3343 11.8645C63.3315 11.8618 63.3288 11.859 63.326 11.8562C63.3232 11.8535 63.3205 11.8507 63.3177 11.8479C63.3149 11.8452 63.3122 11.8424 63.3094 11.8396C63.3067 11.8369 63.3039 11.8341 63.3011 11.8314C63.2984 11.8286 63.2956 11.8258 63.2929 11.8231C63.2901 11.8203 63.2873 11.8176 63.2846 11.8148C63.2818 11.8121 63.2791 11.8093 63.2763 11.8065C63.2736 11.8038 63.2708 11.801 63.2681 11.7983C63.2653 11.7955 63.2625 11.7928 63.2598 11.79C63.257 11.7873 63.2543 11.7845 63.2515 11.7818C63.2488 11.779 63.2461 11.7763 63.2433 11.7735C63.2406 11.7708 63.2378 11.768 63.2351 11.7653C63.2323 11.7626 63.2296 11.7598 63.2268 11.7571C63.2241 11.7543 63.2214 11.7516 63.2186 11.7488C63.2159 11.7461 63.2131 11.7434 63.2104 11.7406C63.2077 11.7379 63.2049 11.7351 63.2022 11.7324L61.788 13.1466ZM57 20C55.3431 20 54 18.6569 54 17H52C52 19.7614 54.2386 22 57 22V20ZM57.5453 13.1466C58.7169 11.9751 60.6164 11.9751 61.788 13.1466L63.2022 11.7324C61.2496 9.77978 58.0837 9.77982 56.1311 11.7324L57.5453 13.1466ZM66.7778 22C69.5392 22 71.7778 19.7614 71.7778 17H69.7778C69.7778 18.6569 68.4346 20 66.7778 20V22ZM57 2.22222C54.2386 2.22222 52 4.4608 52 7.22223H54C54 5.56537 55.3431 4.22222 57 4.22222V2.22222Z" fill="black"/>
<path d="M70.7778 14.6111L70.2729 14.1062C68.7108 12.5441 66.1781 12.5441 64.616 14.1062L64.3889 14.3333" stroke="black" stroke-width="2" stroke-linecap="round"/>
<circle cx="64.1111" cy="7.66667" r="0.555556" fill="black"/>
</svg>
